<?xml version="1.0" encoding="UTF-8"?>
<svg id="_レイヤー_2" data-name="レイヤー 2" xmlns="http://www.w3.org/2000/svg" width="213.8" height="78.3" viewBox="0 0 213.8 78.3">
  <defs>
    <style>
      .cls-1 {
        fill: #d30202;
      }
    </style>
  </defs>
  <g id="text">
    <g>
      <path class="cls-1" d="M35.8,68.1l-.8-.2-.7,.3h-.7s-.7-.1-.7-.1h-.7s-.7,0-.7,0h-.7c0-.1-.7,0-.7,0l-.7,.2h-.7c0,0-.7,0-.7,0h-.7s-.1-.7-.1-.7l-.2-.6v-.6c-.1,0,0-.7,0-.7v-.7s-.3-.6-.3-.6l-.3-.6v-.7s0-.7,0-.7v-.7c-.1,0-.4-.6-.4-.6l.2-.7v-.6c-.1,0-.3-.7-.3-.7l-.2-.6v-.7c-.1,0-.3-.7-.3-.7v-.7s-.4-.5-.4-.5l-.6-.3-.6-.3h-.7c0,0-.7,0-.7,0h-.7c0,0-.7,0-.7,0h-.7c0,.1-.7-.1-.7-.1l-.7,.2h-.7c0,0-.7,0-.7,0h-.7s-.7,0-.7,0h-.7s-.7-.1-.7-.1h-.7s-.6,.3-.6,.3l-.4,.5-.5,.5-.2,.6v.7s-.3,.6-.3,.6l.2,.7-.3,.7v.7c0,0-.3,.6-.3,.6v.7c0,0-.1,.7-.1,.7l-.3,.6v.7c0,0-.1,.7-.1,.7v.7s-.4,.6-.4,.6v.7c-.1,0,0,.7,0,.7l-.5,.5-.4,.5h-.7s-.6,.1-.6,.1l-.7-.2-.7-.2-.7,.2-.7-.3h-.7s-.7,.1-.7,.1h-.7s-.6,0-.6,0v-.6c-.1,0,0-.7,0-.7v-.7c.1,0,.2-.7,.2-.7l.3-.6v-.7s.2-.7,.2-.7v-.7c0,0,.2-.7,.2-.7v-.7c.1,0,.4-.6,.4-.6v-.7c.1,0,.3-.7,.3-.7l.2-.7-.2-.7v-.7c.1,0,.3-.7,.3-.7l.2-.6v-.7s.2-.7,.2-.7l.3-.6v-.7s.3-.6,.3-.6v-.7c-.1,0,0-.7,0-.7l.3-.6v-.7s.3-.6,.3-.6v-.7s0-.7,0-.7l.2-.7v-.7c0,0,.3-.7,.3-.7v-.7s.2-.6,.2-.6v-.7c.1,0,.3-.7,.3-.7l.2-.7v-.7c0,0,.4-.6,.4-.6v-.7c0,0,.2-.6,.2-.6l.2-.7,.2-.7v-.7c0,0,0-.7,0-.7l.3-.6v-.7c0,0,.1-.7,.1-.7l.4-.6v-.7s.3-.6,.3-.6v-.7s.2-.7,.2-.7v-.7s.2-.6,.2-.6v-.7c.1,0,.2-.7,.2-.7v-.7c0,0,.4-.6,.4-.6v-.7c0,0,.3-.6,.3-.6v-.7c.1,0,.2-.7,.2-.7v-.7c0,0,.3-.7,.3-.7v-.7s.4-.6,.4-.6v-.7s0-.7,0-.7v-.7c.1,0,.5-.6,.5-.6l-.2-.7,.4-.6v-.7c.1,0,.1-.7,.1-.7v-.7s.2-1.4,.2-1.4v-.7c0,0,.2-.7,.2-.7l.4-.5,.5-.4,.5-.3,.6-.4,.7-.2,.7,.2,.7-.2,.7,.2h.7c0-.1,.7-.3,.7-.3l.7,.3h.7c0,0,.7-.3,.7-.3l.6,.4,.6,.3,.5,.4,.4,.5,.4,.6v.7c.1,0,0,.7,0,.7l.2,.7v.7c-.1,0,0,.7,0,.7v.7s.1,.7,.1,.7l-.2,.7,.2,.7v.7s0,.7,0,.7l.2,.7v.7c.1,0,.4,.6,.4,.6l.5,.5,.2,.7,.2,.6v.7c.1,0,.2,.7,.2,.7l.3,.6v.7s.3,.6,.3,.6l.3,.6v.7s.2,.6,.2,.6l.2,.6v.7s.2,.6,.2,.6v.7c0,0,0,.7,0,.7l.2,.6,.2,.6,.2,.6v.7c0,0,.3,.6,.3,.6v.7c0,0,0,.7,0,.7l.2,.6v.7c0,0,.1,.7,.1,.7l.2,.6,.2,.7v.7s.4,.6,.4,.6v.7c0,0,.1,.7,.1,.7l.2,.7v.7s0,.7,0,.7l.3,.6v.7c.1,0,0,.7,0,.7l.3,.6v.7c.1,0,.3,.7,.3,.7v.7s0,.7,0,.7l.4,.6v.7c0,0,0,.7,0,.7l.3,.6v.7s.1,.7,.1,.7l.3,.6v.7c0,0,.2,.7,.2,.7v.7c0,0,.1,.7,.1,.7l.3,.6v.7s.2,.7,.2,.7l.2,.7v.7s.2,.7,.2,.7v.7c.1,0,.5,.6,.5,.6v.7s.3,.6,.3,.6v.7c-.1,0,.3,.6,.3,.6l.2,.8Zm-11.3-19.7l-.4-.7v-.7c0,0-.2-.6-.2-.6v-.7s-.3-.6-.3-.6v-.7s0-.7,0-.7l-.3-.6v-.7c.1,0,0-.7,0-.7l-.2-.6v-.7c0,0-.2-.7-.2-.7l-.4-.6v-.7c0,0-.2-.7-.2-.7l-.2-.7v-.7c0,0-.2-.6-.2-.6v-.7c0,0-.3-.6-.3-.6v-.7c-.1,0-.2-.7-.2-.7v-.7s0-.7,0-.7v-.7c0,0-.1-.7-.1-.7l-.4-.6v-.7c-.1,0-.2-.7-.2-.7v-.7s-.2-.6-.2-.6v-.7c-.1,0-.1-.7-.1-.7l-.3-.6v-.6c-.1,0-.9-.2-.9-.2v.8c.1,0,0,.7,0,.7l-.2,.7-.2,.7v.7c-.1,0-.3,.7-.3,.7v.7c0,0,0,.7,0,.7l-.2,.7v.7c-.1,0-.3,.7-.3,.7v.7c-.1,0-.1,.7-.1,.7v.7c-.1,0-.4,.6-.4,.6l-.2,.6v.7s0,.7,0,.7l-.2,.7-.2,.7v.7c-.1,0-.1,.7-.1,.7l-.4,.6v.7c0,0-.1,.7-.1,.7v.7s0,.7,0,.7v.7c-.1,0-.4,.6-.4,.6l-.4-.5-.4-.5-.3-.6-.4-.5-.5-.4-.4-.5-.5-.4-.4-.4-.8,.4,.4,.7,.2,.7,.3,.6,.3,.6,.3,.6,.2,.7v.7c.1,0,.3,.7,.3,.7l.3,.6,.4,.6v.7c0,0,.3,.6,.3,.6l.8,.3,.8,.3,.7-.3,.7,.2,.7-.2,.7,.2,.7-.2h.7s.7,.2,.7,.2l.7-.3h.7s.7-.2,.7-.2l.7,.2h.8Z"/>
      <path class="cls-1" d="M71.4,52.6v.7c-.1,0-.1,.7-.1,.7v.7s0,.7,0,.7v.7c0,0-.1,.7-.1,.7v.7c.1,0,.1,.7,.1,.7v.7c0,0-.1,.7-.1,.7v.7c-.1,0-.4,.7-.4,.7v.7c0,0-.1,.7-.1,.7l-.2,.7-.7-.3-.7-.3-.7-.2-.9-.2,.2,.8,.2,.7v.7s-.2,.7-.2,.7v.7c-.1,0-.2,.7-.2,.7l-.4,.6-.5,.5-.6,.3-.7,.2-.7,.2h-.7c0,.1-.6,.4-.6,.4l-.6,.3h-.7c0,0-.7,.1-.7,.1h-.7s-.7,0-.7,0l-.7,.3h-.7c0,0-.7-.2-.7-.2h-.7s-.7,.2-.7,.2h-.7c0-.1-.7-.3-.7-.3h-.7c0-.1-.7,0-.7,0l-.7-.2-.7-.2-.6-.3-.7-.2h-.7s-.5-.5-.5-.5l-.6-.3-.6-.3-.6-.3-.5-.5-.6-.4-.6-.4-.5-.5-.3-.6-.2-.7-.6-.5-.2-.7-.2-.7v-.7c-.1,0-.3-.7-.3-.7v-.7c-.1,0,0-.7,0-.7v-.7c-.1,0,0-.7,0-.7v-.7s-.2-.7-.2-.7v-.7s0-.7,0-.7v-.7s.2-.7,.2-.7v-.7c.1,0,.1-.7,.1-.7v-.7c0,0,0-.7,0-.7v-.7c0,0,0-.7,0-.7v-.7c0,0,0-.7,0-.7v-.7c.1,0,0-.7,0-.7v-.7s0-.7,0-.7v-.7s.8,0,.8,0l.6-.4,.7-.2h.7c0,0,.7-.3,.7-.3l-.4-.6-.3-.6v-.6c-.1,0-.3-.6-.3-.6l-.7-.2-.3-.7-.5-.5-.3-.6-.2-.6-.4-.6v-.7s-.2-.6-.2-.6v-.7c0,0,0-.7,0-.7l.2-.7v-.7c0,0,0-.7,0-.7l.2-.7v-.7s0-.7,0-.7v-.7c0,0,.2-.7,.2-.7l-.2-.7,.2-.7v-.7c0,0,0-.7,0-.7l-.2-.7v-.7s0-.7,0-.7v-.7s.1-.7,.1-.7v-.7c.1,0,.2-.7,.2-.7l-.2-.7v-.7c.1,0,.2-.7,.2-.7l.3-.7v-.7c0,0,.3-.6,.3-.6v-.7s.5-.5,.5-.5v-.7c.1,0,.7-.5,.7-.5l.4-.6,.6-.4,.3-.7,.7-.2,.5-.4,.6-.3,.5-.4,.6-.3h.7c0,0,.6-.4,.6-.4h.7c0,0,.7,0,.7,0h.7c0,0,.6-.3,.6-.3l.6-.2h.6c0-.1,.7,0,.7,0l.6-.3h.7s.7,0,.7,0l.6-.3h.8s.7,.2,.7,.2h.7s.5,.5,.5,.5h.7c0,0,.6,.3,.6,.3l.5,.5,.6,.3h.7c0,.1,.5,.6,.5,.6h.7c0,0,.5,.5,.5,.5l.6,.4,.6,.3,.5,.5,.4,.6,.4,.6,.7,.4,.3,.6,.2,.7,.5,.5v.7c.1,0,.3,.7,.3,.7l.2,.6v.7s.3,.7,.3,.7v.7c0,0,0,.7,0,.7v.7c0,0,0,.7,0,.7v.7c0,0,0,.7,0,.7l-.2,.7v.7c0,0,.2,.7,.2,.7v.7c-.1,0-.1,.7-.1,.7v.7s-.1,.7-.1,.7v.7c.1,0,0,.6,0,.6v.6c-.1,0-.5,.5-.5,.5l-.6,.2h-.7c0-.1-.7,0-.7,0h-.7c0,.1-.7,.1-.7,.1h-.7s-.7,0-.7,0h-.7c0,0-.7-.2-.7-.2l-.7,.2h-.6c0,0,0-.7,0-.7v-.7c0,0,0-.7,0-.7l-.2-.7,.2-.7v-.7c0,0-.1-.7-.1-.7v-.7s0-.7,0-.7v-.7s-.1-.7-.1-.7l.3-.7-.3-.7v-.7s0-.6,0-.6v-.7s0-.7,0-.7l-.4-.6v-.7c-.1,0-.7-.4-.7-.4l-.3-.6-.6-.3-.4-.6h-.7s-.6-.2-.6-.2h-.7c0-.1-.7-.1-.7-.1l-.7,.2h-.7c0,0-.7-.1-.7-.1l-.6,.3-.6,.2h-.7c0,0-.6,.3-.6,.3l-.4,.6-.4,.5-.4,.6-.2,.6v.7c-.1,0,0,.7,0,.7l-.4,.6,.2,.7v.7c-.1,0-.3,.7-.3,.7l.2,.7v.7s-.2,.7-.2,.7v.7s0,.7,0,.7v.7c-.1,0,0,.7,0,.7v.7c-.1,0,0,.7,0,.7v.7c0,0-.2,.7-.2,.7v.7c0,0-.2,.7-.2,.7v.7c0,0,0,.7,0,.7v.7s-.1,.7-.1,.7v.7c0,0,.2,.7,.2,.7l-.2,.7,.2,.7v.7c-.1,0-.2,.7-.2,.7v.7s0,.7,0,.7l-.2,.7v.7c.1,0-.1,.7-.1,.7v.6s-.4-.3-.4-.3h-.6c0-.1-.6-.4-.6-.4h-.6c0,0-.3,.6-.3,.6l-.2,.6-.2,.6,.5,.5,.3,.5,.5,.4,.4,.5,.5,.4,.5,.4,.9-.5v.8s0,.7,0,.7l-.2,.7,.2,.7v.7s.1,.7,.1,.7l-.3,.7v.7s.2,.7,.2,.7l-.2,.7v.7c0,0,.1,.7,.1,.7v.7c0,0,.3,.6,.3,.6l.2,.7,.2,.7,.5,.5,.3,.6,.6,.3,.6,.3,.6,.3,.7,.3h.7s.7-.1,.7-.1h.7c0,0,.7,0,.7,0h.7s.7-.3,.7-.3l.7-.2,.7-.2,.5-.5,.7-.3,.2-.7,.4-.6,.2-.7v-.7c0,0,0-.7,0-.7l.3-.7-.2-.7,.2-.7-.2-.7,.2-.7v-.7c0,0,0-.7,0-.7l-.2-.7v-.7s.3-.7,.3-.7v-.7s0-.7,0-.7v-.7c0,0-.2-.7-.2-.7l.2-.7v-.7s0-.6,0-.6h.6s.7,0,.7,0h.7c0-.1,.7,0,.7,0h.7s.7,0,.7,0h.7s.7,.1,.7,.1h.7s.7,0,.7,0h.6c0,.1,.2,.7,.2,.7v.7c-.1,0-.2,.7-.2,.7v.7s.1,.7,.1,.7v.7c0,0,.2,.7,.2,.7l-.2,.7v.7s.2,.7,.2,.7Z"/>
      <path class="cls-1" d="M107,52.6v.7c-.1,0-.1,.7-.1,.7v.7s0,.7,0,.7v.7c0,0-.1,.7-.1,.7v.7c.1,0,.1,.7,.1,.7v.7c0,0-.1,.7-.1,.7v.7c-.1,0-.4,.7-.4,.7v.7c0,0-.1,.7-.1,.7l-.2,.7-.7-.3-.7-.3-.7-.2-.9-.2,.2,.8,.2,.7v.7s-.2,.7-.2,.7v.7c-.1,0-.2,.7-.2,.7l-.4,.6-.5,.5-.6,.3-.7,.2-.7,.2h-.7c0,.1-.6,.4-.6,.4l-.6,.3h-.7c0,0-.7,.1-.7,.1h-.7s-.7,0-.7,0l-.7,.3h-.7c0,0-.7-.2-.7-.2h-.7s-.7,.2-.7,.2h-.7c0-.1-.7-.3-.7-.3h-.7c0-.1-.7,0-.7,0l-.7-.2-.7-.2-.6-.3-.7-.2h-.7s-.5-.5-.5-.5l-.6-.3-.6-.3-.6-.3-.5-.5-.6-.4-.6-.4-.5-.5-.3-.6-.2-.7-.6-.5-.2-.7-.2-.7v-.7c-.1,0-.3-.7-.3-.7v-.7c-.1,0,0-.7,0-.7v-.7c-.1,0,0-.7,0-.7v-.7s-.2-.7-.2-.7v-.7s0-.7,0-.7v-.7s.2-.7,.2-.7v-.7c.1,0,.1-.7,.1-.7v-.7c0,0,0-.7,0-.7v-.7c0,0,0-.7,0-.7v-.7c0,0,0-.7,0-.7v-.7c.1,0,0-.7,0-.7v-.7s0-.7,0-.7v-.7s.8,0,.8,0l.6-.4,.7-.2h.7c0,0,.7-.3,.7-.3l-.4-.6-.3-.6v-.6c-.1,0-.3-.6-.3-.6l-.7-.2-.3-.7-.5-.5-.3-.6-.2-.6-.4-.6v-.7s-.2-.6-.2-.6v-.7c0,0,0-.7,0-.7l.2-.7v-.7c0,0,0-.7,0-.7l.2-.7v-.7s0-.7,0-.7v-.7c0,0,.2-.7,.2-.7l-.2-.7,.2-.7v-.7c0,0,0-.7,0-.7l-.2-.7v-.7s0-.7,0-.7v-.7s.1-.7,.1-.7v-.7c.1,0,.2-.7,.2-.7l-.2-.7v-.7c.1,0,.2-.7,.2-.7l.3-.7v-.7c0,0,.3-.6,.3-.6v-.7s.5-.5,.5-.5v-.7c.1,0,.7-.5,.7-.5l.4-.6,.6-.4,.3-.7,.7-.2,.5-.4,.6-.3,.5-.4,.6-.3h.7c0,0,.6-.4,.6-.4h.7c0,0,.7,0,.7,0h.7c0,0,.6-.3,.6-.3l.6-.2h.6c0-.1,.7,0,.7,0l.6-.3h.7s.7,0,.7,0l.6-.3h.8s.7,.2,.7,.2h.7s.5,.5,.5,.5h.7c0,0,.6,.3,.6,.3l.5,.5,.6,.3h.7c0,.1,.5,.6,.5,.6h.7c0,0,.5,.5,.5,.5l.6,.4,.6,.3,.5,.5,.4,.6,.4,.6,.7,.4,.3,.6,.2,.7,.5,.5v.7c.1,0,.3,.7,.3,.7l.2,.6v.7s.3,.7,.3,.7v.7c0,0,0,.7,0,.7v.7c0,0,0,.7,0,.7v.7c0,0,0,.7,0,.7l-.2,.7v.7c0,0,.2,.7,.2,.7v.7c-.1,0-.1,.7-.1,.7v.7s-.1,.7-.1,.7v.7c.1,0,0,.6,0,.6v.6c-.1,0-.5,.5-.5,.5l-.6,.2h-.7c0-.1-.7,0-.7,0h-.7c0,.1-.7,.1-.7,.1h-.7s-.7,0-.7,0h-.7c0,0-.7-.2-.7-.2l-.7,.2h-.6c0,0,0-.7,0-.7v-.7c0,0,0-.7,0-.7l-.2-.7,.2-.7v-.7c0,0-.1-.7-.1-.7v-.7s0-.7,0-.7v-.7s-.1-.7-.1-.7l.3-.7-.3-.7v-.7s0-.6,0-.6v-.7s0-.7,0-.7l-.4-.6v-.7c-.1,0-.7-.4-.7-.4l-.3-.6-.6-.3-.4-.6h-.7s-.6-.2-.6-.2h-.7c0-.1-.7-.1-.7-.1l-.7,.2h-.7c0,0-.7-.1-.7-.1l-.6,.3-.6,.2h-.7c0,0-.6,.3-.6,.3l-.4,.6-.4,.5-.4,.6-.2,.6v.7c-.1,0,0,.7,0,.7l-.4,.6,.2,.7v.7c-.1,0-.3,.7-.3,.7l.2,.7v.7s-.2,.7-.2,.7v.7s0,.7,0,.7v.7c-.1,0,0,.7,0,.7v.7c-.1,0,0,.7,0,.7v.7c0,0-.2,.7-.2,.7v.7c0,0-.2,.7-.2,.7v.7c0,0,0,.7,0,.7v.7s-.1,.7-.1,.7v.7c0,0,.2,.7,.2,.7l-.2,.7,.2,.7v.7c-.1,0-.2,.7-.2,.7v.7s0,.7,0,.7l-.2,.7v.7c.1,0-.1,.7-.1,.7v.6s-.4-.3-.4-.3h-.6c0-.1-.6-.4-.6-.4h-.6c0,0-.3,.6-.3,.6l-.2,.6-.2,.6,.5,.5,.3,.5,.5,.4,.4,.5,.5,.4,.5,.4,.9-.5v.8s0,.7,0,.7l-.2,.7,.2,.7v.7s.1,.7,.1,.7l-.3,.7v.7s.2,.7,.2,.7l-.2,.7v.7c0,0,.1,.7,.1,.7v.7c0,0,.3,.6,.3,.6l.2,.7,.2,.7,.5,.5,.3,.6,.6,.3,.6,.3,.6,.3,.7,.3h.7s.7-.1,.7-.1h.7c0,0,.7,0,.7,0h.7s.7-.3,.7-.3l.7-.2,.7-.2,.5-.5,.7-.3,.2-.7,.4-.6,.2-.7v-.7c0,0,0-.7,0-.7l.3-.7-.2-.7,.2-.7-.2-.7,.2-.7v-.7c0,0,0-.7,0-.7l-.2-.7v-.7s.3-.7,.3-.7v-.7s0-.7,0-.7v-.7c0,0-.2-.7-.2-.7l.2-.7v-.7s0-.6,0-.6h.6s.7,0,.7,0h.7c0-.1,.7,0,.7,0h.7s.7,0,.7,0h.7s.7,.1,.7,.1h.7s.7,0,.7,0h.6c0,.1,.2,.7,.2,.7v.7c-.1,0-.2,.7-.2,.7v.7s.1,.7,.1,.7v.7c0,0,.2,.7,.2,.7l-.2,.7v.7s.2,.7,.2,.7Z"/>
      <path class="cls-1" d="M138.7,65.3v.7s0,.7,0,.7v.7c0,0,0,.6,0,.6l-.6,.2h-.7s-.7-.2-.7-.2h-.7c0,0-.7,0-.7,0h-.7c0,0-.7,.2-.7,.2h-.7c0-.1-.7,0-.7,0l-.7-.2h-.7c0,.1-.7,.1-.7,.1h-.7s-.7,0-.7,0l-.7-.3-.7,.2h-.7c0,0-.7,0-.7,0h-.7s-.7-.2-.7-.2l-.7,.2h-.7s-.7-.2-.7-.2h-.7s-.7,0-.7,0l-.7,.2h-.7s-.7,0-.7,0h-.7c0-.1-.7-.2-.7-.2l-.7,.3h-.7c0,0-.7-.1-.7-.1l-.7-.2h-.6c0,0,0-.6,0-.6v-.7c.1,0,0-.7,0-.7v-.7c0,0,.2-.7,.2-.7v-.7s0-.7,0-.7v-.7c-.1,0,0-.7,0-.7v-.7c0,0-.2-.7-.2-.7v-.7s.3-.7,.3-.7l-.2-.7v-.7c.1,0,.1-.7,.1-.7v-.7s-.1-.7-.1-.7v-.7s0-.7,0-.7l.3-.7v-.7c-.1,0,0-.7,0-.7v-.7c0,0,0-.7,0-.7v-.7c0,0-.1-.7-.1-.7v-.7c0,0,0-.7,0-.7v-.7s.3-.7,.3-.7v-.7c-.1,0-.3-.7-.3-.7l.2-.7v-.7s0-.7,0-.7v-.7c0,0,0-.7,0-.7v-.7c0,0,.1-.7,.1-.7v-.7c-.1,0-.2-.7-.2-.7v-.7c.1,0,.3-.7,.3-.7l-.2-.7v-.7s.1-.7,.1-.7v-.7s-.2-.7-.2-.7l.2-.7v-.7c-.1,0,0-.7,0-.7v-.7s0-.7,0-.7l-.2-.7v-.7s.1-.7,.1-.7v-.7c0,0-.2-.7-.2-.7l.2-.7v-.7c0,0,0-.7,0-.7v-.7c0,0,0-.7,0-.7l.2-.7-.2-.7v-.7c0,0,0-.7,0-.7v-.7s0-.7,0-.7v-.7c.1,0,0-.7,0-.7v-.7c.1,0,0-.7,0-.7v-.7s-.1-.7-.1-.7l.2-.7v-.7s0-.7,0-.7l-.2-.7v-.6c.1,0,.7-.2,.7-.2l.6-.3h.7c0,0,.7,0,.7,0h.7c0-.1,.7,0,.7,0h.7s.7,0,.7,0h.7c0-.1,.7,.2,.7,.2l.7-.2,.7,.2,.7-.2h.7s.7,.2,.7,.2h.7s.7-.1,.7-.1l.7-.2h.7s.7,.1,.7,.1h.7c0,0,.7,.1,.7,.1h.7s.7,0,.7,0h.7c0,0,.7-.3,.7-.3l.7,.3h.7c0-.1,.7,0,.7,0h.7c0,0,.7-.2,.7-.2h.7c0,.1,.7,.2,.7,.2l.7,.2,.3,.7v.7s.1,.7,.1,.7l-.3,.7,.2,.7v.7c0,0-.2,.7-.2,.7v.7s0,.6,0,.6l-.6,.2h-.7s-.7-.2-.7-.2l-.7,.2h-.7s-.7-.1-.7-.1h-.7c0,0-.7,0-.7,0h-.7c0,.1-.7,0-.7,0l-.7,.2-.7-.3h-.7c0,.1-.7,.2-.7,.2h-.7c0,0-.7,0-.7,0h-.7c0,0-.7-.3-.7-.3l-.7,.3-.7-.3-.7,.2-.7-.2h-.7s.1,.8,.1,.8l-.3,.7v.7c0,0,.2,.7,.2,.7v.7c-.1,0,0,.7,0,.7v.7c0,0,0,.7,0,.7v.7c-.1,0-.1,.7-.1,.7v.7c-.1,0,0,.7,0,.7v.7c-.1,0,0,.7,0,.7v.7s0,.7,0,.7v.7s-.2,.7-.2,.7v.7s0,.7,0,.7l.2,.7v.7s-.1,.7-.1,.7v.7c0,0,.2,.7,.2,.7v.6s.6,0,.6,0h.7c0-.1,.7-.2,.7-.2h.7c0,.1,.7,.1,.7,.1h.7c0,0,.7,0,.7,0h.7c0,0,.7,0,.7,0h.7s.7,0,.7,0h.7c0,0,.7,0,.7,0h.7c0,.1,.7,.3,.7,.3h.7c0,0,.7-.2,.7-.2h.7c0-.1,.7,0,.7,0l.4,.5v.7s0,.7,0,.7l-.2,.7v.7c.1,0-.2,.7-.2,.7l.2,.7v.7c0,0-.4,.7-.4,.7l-.6,.4-.6,.4-.7,.2h-.7s-.7,.1-.7,.1h-.7s-.7,0-.7,0h-.7s-.7,0-.7,0h-.7c0-.1-.7-.3-.7-.3l-.7,.2-.7-.2h-.7s-.7,.1-.7,.1h-.7c0,0-.7,0-.7,0h-.7c0,.1-.7,.1-.7,.1h-.6c0,0,0,.6,0,.6l-.2,.7v.7s.2,.7,.2,.7v.7c-.1,0,0,.7,0,.7v.7c0,0,0,.7,0,.7l-.3,.7v.7c.1,0,0,.7,0,.7v.7c0,0,.2,.7,.2,.7v.7s-.1,.7-.1,.7v.7s0,.7,0,.7v.7s-.2,.7-.2,.7l.2,.7-.2,.7v.7c.1,0,0,.7,0,.7v.6c0,0,0,.6,0,.6v.6c.1,0,.5,.5,.5,.5l.6,.2,.6,.2h.6s.7,.1,.7,.1h.7s.7-.1,.7-.1h.7c0,0,.7,0,.7,0l.7-.3h1.4c0,0,.7,.2,.7,.2h.7s.7-.2,.7-.2h.7s.7,0,.7,0h.7c0,0,.7,0,.7,0l.7-.2,.7,.2,.7-.2h.7c0,0,.4,.7,.4,.7l.4,.6v.7s0,.7,0,.7v.7c-.1,0-.3,.7-.3,.7Z"/>
      <path class="cls-1" d="M174.3,51.4v.7c0,0,0,.7,0,.7l-.2,.7v.7c0,0,0,.7,0,.7v.7s.1,.7,.1,.7v.7s-.4,.7-.4,.7v.7s0,.7,0,.7v.7s0,.7,0,.7v.7s0,.7,0,.7l.2,.7v.7c0,0-.3,.7-.3,.7l-.2,.7-.4,.6-.4,.6-.5,.5-.6,.4-.5,.5-.7,.3-.6,.3-.6,.3-.6,.2-.5,.5h-.7s-.7,.2-.7,.2l-.6,.4h-.7s-.6,.4-.6,.4l-.7-.2-.6,.3h-.7c0,.1-.7,0-.7,0l-.7,.2-.7,.2h-.7c0-.1-.7-.2-.7-.2h-.7s-.7,0-.7,0l-.6-.2-.6-.3h-.7c0-.1-.6-.3-.6-.3h-.7c0-.1-.6-.4-.6-.4h-.7c0-.1-.6-.5-.6-.5l-.7-.2-.6-.3-.6-.4-.6-.4-.6-.4-.3-.7-.5-.4-.3-.6-.4-.5-.3-.6-.3-.6v-.7c-.1,0-.3-.6-.3-.6l-.2-.7v-.7s-.3-.7-.3-.7l.3-.7-.3-.7,.3-.7-.3-.7,.2-.7-.2-.7v-.7c.1,0-.1-.7-.1-.7v-.7c.1,0,0-.7,0-.7v-.7c0,0,.2-.7,.2-.7l-.3-.6,.2-.6v-.6s.4-.6,.4-.6l.5-.4,.5-.3,.6-.2,.6,.2h.6c0,0,.6,0,.6,0h.6c0,0,.6,0,.6,0h.6s.6,0,.6,0h.6c0,0,.6,0,.6,0v.7c0,0,0,.7,0,.7l.2,.7v.7s0,.7,0,.7l-.3,.7,.2,.7v.7c-.1,0-.2,.7-.2,.7l.2,.7-.2,.7v.7c0,0,0,.7,0,.7l-.2,.7v.7c.1,0,.4,.6,.4,.6l.3,.6v.7s.6,.4,.6,.4l.4,.5,.5,.4,.6,.2,.6,.3,.6,.3,.7-.2h.7c0,0,.7,.2,.7,.2h.7s.7,0,.7,0l.6-.4h.7s.6-.3,.6-.3l.6-.3,.4-.5,.5-.4,.5-.5,.2-.6v-.6c.1,0,.5-.6,.5-.6v-.7s-.3-.6-.3-.6v-.7s-.1-.7-.1-.7v-.7c0,0,0-.7,0-.7v-.7s.2-.7,.2-.7v-.7c-.1,0-.4-.6-.4-.6v-.7s0-.7,0-.7l-.3-.6-.3-.6-.3-.6-.5-.5-.4-.5-.4-.5-.5-.5-.6-.3-.4-.6-.6-.3-.5-.4-.7-.2-.5-.5-.5-.5h-.7c0-.1-.6-.4-.6-.4l-.5-.4-.5-.5-.5-.4-.6-.4-.7-.2-.5-.5-.7-.2-.6-.3-.6-.4-.6-.4-.6-.4-.6-.4-.6-.4-.7-.2-.5-.5-.5-.5-.6-.4-.5-.5-.3-.6-.2-.7-.2-.7v-.7c0,0-.4-.7-.4-.7v-.7c0,0,0-.7,0-.7v-.7s.2-.7,.2-.7v-.7c-.1,0,0-.7,0-.7v-.7s0-.7,0-.7l-.2-.7v-.7s.2-.7,.2-.7l-.2-.7v-.7c0,0,.3-.7,.3-.7v-.7s.1-.7,.1-.7v-.7s0-.7,0-.7v-.7s0-.7,0-.7l.2-.7,.4-.6v-.7c0,0,.5-.5,.5-.5v-.7c.1,0,.6-.5,.6-.5l.5-.4,.4-.5,.5-.5,.7-.2,.5-.5,.6-.2,.7-.2,.6-.3h.7c0-.1,.6-.3,.6-.3l.6-.3,.7-.2h.7c0,0,.6-.3,.6-.3h.7c0,0,.7,0,.7,0h.7c0,0,.7,0,.7,0h.7c0,0,.7,0,.7,0h.7c0,.1,.7,.3,.7,.3l.7,.2h.7c0,.1,.7,.2,.7,.2h.7c0,0,.7,.1,.7,.1l.7,.2,.6,.3,.6,.4h.7c0,.1,.5,.7,.5,.7l.7,.2,.6,.4,.3,.7,.5,.5,.5,.5,.4,.6,.3,.7,.4,.6,.3,.6v.7c.1,0,.3,.7,.3,.7l.3,.7v.7c0,0,0,.7,0,.7v.7c0,0,0,.7,0,.7v.7c0,0,0,.6,0,.6l-.3,.6,.2,.7v.6c-.1,0-.3,.7-.3,.7h-.8s.4,.6,.4,.6l.3,.6,.4,.6,.2,.6,.3,.7-.2,.7-.4,.6-.6,.4-.7,.2-.7-.2-1-.2-.7,.2-.7-.3-.7-.2h-.7s-.7,0-.7,0l-.6-.4-.2-.6-.2-.6-.3-.6v-.7s0-.7,0-.7v-.7c0,0,0-.6,0-.6v-.6s.2-.6,.2-.6l-.3-.7v-.7c0,0-.1-.7-.1-.7v-.7c-.1,0,0-.7,0-.7l-.2-.7-.4-.6-.2-.7-.5-.5-.6-.4-.4-.6-.7-.3h-.7s-.6-.2-.6-.2h-.7s-.7,0-.7,0h-.7s-.7,.1-.7,.1h-.7s-.7,.2-.7,.2l-.7,.4-.3-.8-.3-.8h-.8c0,.1,.1,.9,.1,.9v.7c-.1,0,0,.7,0,.7v.7s-.3,.7-.3,.7v.7c.1,0,0,.7,0,.7v.7c0,0-.1,.7-.1,.7v1.4s0,.7,0,.7v.7c.1,0-.2,.7-.2,.7l.3,.7v.7s0,.7,0,.7v.6s0,.7,0,.7l.2,.6,.6,.4,.2,.6,.6,.3,.4,.5,.5,.5,.5,.4,.7,.2,.5,.5,.5,.5,.5,.4,.6,.3,.5,.5,.7,.2,.5,.5,.6,.4h.7c0,.1,.5,.5,.5,.5l.5,.4,.6,.3,.6,.4,.6,.2,.5,.5,.6,.4,.6,.3,.7,.2,.6,.3,.5,.4,.5,.5,.5,.5,.5,.5,.5,.5,.4,.5,.2,.7,.4,.6,.4,.6v.7s.3,.6,.3,.6l.3,.7,.2,.7v.7c0,0,0,.7,0,.7v.7c0,0,0,.7,0,.7Z"/>
      <path class="cls-1" d="M209.8,51.4v.7c0,0,0,.7,0,.7l-.2,.7v.7c0,0,0,.7,0,.7v.7s.1,.7,.1,.7v.7s-.4,.7-.4,.7v.7s0,.7,0,.7v.7s0,.7,0,.7v.7s0,.7,0,.7l.2,.7v.7c0,0-.3,.7-.3,.7l-.2,.7-.4,.6-.4,.6-.5,.5-.6,.4-.5,.5-.7,.3-.6,.3-.6,.3-.6,.2-.5,.5h-.7s-.7,.2-.7,.2l-.6,.4h-.7s-.6,.4-.6,.4l-.7-.2-.6,.3h-.7c0,.1-.7,0-.7,0l-.7,.2-.7,.2h-.7c0-.1-.7-.2-.7-.2h-.7s-.7,0-.7,0l-.6-.2-.6-.3h-.7c0-.1-.6-.3-.6-.3h-.7c0-.1-.6-.4-.6-.4h-.7c0-.1-.6-.5-.6-.5l-.7-.2-.6-.3-.6-.4-.6-.4-.6-.4-.3-.7-.5-.4-.3-.6-.4-.5-.3-.6-.3-.6v-.7c-.1,0-.3-.6-.3-.6l-.2-.7v-.7s-.3-.7-.3-.7l.3-.7-.3-.7,.3-.7-.3-.7,.2-.7-.2-.7v-.7c.1,0-.1-.7-.1-.7v-.7c.1,0,0-.7,0-.7v-.7c0,0,.2-.7,.2-.7l-.3-.6,.2-.6v-.6s.4-.6,.4-.6l.5-.4,.5-.3,.6-.2,.6,.2h.6c0,0,.6,0,.6,0h.6c0,0,.6,0,.6,0h.6s.6,0,.6,0h.6c0,0,.6,0,.6,0v.7c0,0,0,.7,0,.7l.2,.7v.7s0,.7,0,.7l-.3,.7,.2,.7v.7c-.1,0-.2,.7-.2,.7l.2,.7-.2,.7v.7c0,0,0,.7,0,.7l-.2,.7v.7c.1,0,.4,.6,.4,.6l.3,.6v.7s.6,.4,.6,.4l.4,.5,.5,.4,.6,.2,.6,.3,.6,.3,.7-.2h.7c0,0,.7,.2,.7,.2h.7s.7,0,.7,0l.6-.4h.7s.6-.3,.6-.3l.6-.3,.4-.5,.5-.4,.5-.5,.2-.6v-.6c.1,0,.5-.6,.5-.6v-.7s-.3-.6-.3-.6v-.7s-.1-.7-.1-.7v-.7c0,0,0-.7,0-.7v-.7s.2-.7,.2-.7v-.7c-.1,0-.4-.6-.4-.6v-.7s0-.7,0-.7l-.3-.6-.3-.6-.3-.6-.5-.5-.4-.5-.4-.5-.5-.5-.6-.3-.4-.6-.6-.3-.5-.4-.7-.2-.5-.5-.5-.5h-.7c0-.1-.6-.4-.6-.4l-.5-.4-.5-.5-.5-.4-.6-.4-.7-.2-.5-.5-.7-.2-.6-.3-.6-.4-.6-.4-.6-.4-.6-.4-.6-.4-.7-.2-.5-.5-.5-.5-.6-.4-.5-.5-.3-.6-.2-.7-.2-.7v-.7c0,0-.4-.7-.4-.7v-.7c0,0,0-.7,0-.7v-.7s.2-.7,.2-.7v-.7c-.1,0,0-.7,0-.7v-.7s0-.7,0-.7l-.2-.7v-.7s.2-.7,.2-.7l-.2-.7v-.7c0,0,.3-.7,.3-.7v-.7s.1-.7,.1-.7v-.7s0-.7,0-.7v-.7s0-.7,0-.7l.2-.7,.4-.6v-.7c0,0,.5-.5,.5-.5v-.7c.1,0,.6-.5,.6-.5l.5-.4,.4-.5,.5-.5,.7-.2,.5-.5,.6-.2,.7-.2,.6-.3h.7c0-.1,.6-.3,.6-.3l.6-.3,.7-.2h.7c0,0,.6-.3,.6-.3h.7c0,0,.7,0,.7,0h.7c0,0,.7,0,.7,0h.7c0,0,.7,0,.7,0h.7c0,.1,.7,.3,.7,.3l.7,.2h.7c0,.1,.7,.2,.7,.2h.7c0,0,.7,.1,.7,.1l.7,.2,.6,.3,.6,.4h.7c0,.1,.5,.7,.5,.7l.7,.2,.6,.4,.3,.7,.5,.5,.5,.5,.4,.6,.3,.7,.4,.6,.3,.6v.7c.1,0,.3,.7,.3,.7l.3,.7v.7c0,0,0,.7,0,.7v.7c0,0,0,.7,0,.7v.7c0,0,0,.6,0,.6l-.3,.6,.2,.7v.6c-.1,0-.3,.7-.3,.7h-.8s.4,.6,.4,.6l.3,.6,.4,.6,.2,.6,.3,.7-.2,.7-.4,.6-.6,.4-.7,.2-.7-.2-1-.2-.7,.2-.7-.3-.7-.2h-.7s-.7,0-.7,0l-.6-.4-.2-.6-.2-.6-.3-.6v-.7s0-.7,0-.7v-.7c0,0,0-.6,0-.6v-.6s.2-.6,.2-.6l-.3-.7v-.7c0,0-.1-.7-.1-.7v-.7c-.1,0,0-.7,0-.7l-.2-.7-.4-.6-.2-.7-.5-.5-.6-.4-.4-.6-.7-.3h-.7s-.6-.2-.6-.2h-.7s-.7,0-.7,0h-.7s-.7,.1-.7,.1h-.7s-.7,.2-.7,.2l-.7,.4-.3-.8-.3-.8h-.8c0,.1,.1,.9,.1,.9v.7c-.1,0,0,.7,0,.7v.7s-.3,.7-.3,.7v.7c.1,0,0,.7,0,.7v.7c0,0-.1,.7-.1,.7v1.4s0,.7,0,.7v.7c.1,0-.2,.7-.2,.7l.3,.7v.7s0,.7,0,.7v.6s0,.7,0,.7l.2,.6,.6,.4,.2,.6,.6,.3,.4,.5,.5,.5,.5,.4,.7,.2,.5,.5,.5,.5,.5,.4,.6,.3,.5,.5,.7,.2,.5,.5,.6,.4h.7c0,.1,.5,.5,.5,.5l.5,.4,.6,.3,.6,.4,.6,.2,.5,.5,.6,.4,.6,.3,.7,.2,.6,.3,.5,.4,.5,.5,.5,.5,.5,.5,.5,.5,.4,.5,.2,.7,.4,.6,.4,.6v.7s.3,.6,.3,.6l.3,.7,.2,.7v.7c0,0,0,.7,0,.7v.7c0,0,0,.7,0,.7Z"/>
    </g>
  </g>
</svg>