<svg width="300" height="300" viewBox="0 0 300 300" fill="none" xmlns="http://www.w3.org/2000/svg">
<path d="M0 0H300V300H0V0Z" fill="white"/>
<path d="M298.828 228.389L272.109 195.209V55.2974C272.109 48.5686 266.484 43 259.688 43H40.0781C33.2812 43 27.6562 48.5686 27.6562 55.2974V195.209L1.17188 228.389C0.46875 229.317 0 230.245 0 231.405V246.023C0 251.359 4.45312 255.768 9.84375 255.768H290.156C295.547 255.768 300 251.359 300 246.023V231.405C300 230.245 299.531 229.317 298.828 228.389ZM45.2344 60.402H254.766V177.807H45.2344V60.402ZM178.125 244.399H121.641V229.549H178.125V244.399Z" fill="#2C1F46"/>
<path d="M119.766 97.9902L86.0156 120.729C86.0156 120.729 86.0156 120.729 86.0156 120.961V126.994C86.0156 126.994 86.0156 126.993 86.0156 127.226L119.766 149.964C119.766 149.964 119.766 149.964 119.766 149.732V139.987C119.766 139.987 119.766 139.987 119.766 139.755L96.3281 123.977L119.766 108.199C119.766 108.199 119.766 108.199 119.766 107.967V98.2223V97.9902Z" fill="#2C1F46"/>
<path d="M179.297 98.2227C179.297 98.2227 179.297 98.2227 179.297 98.4547V108.2C179.297 108.2 179.297 108.2 179.297 108.432L202.734 124.21L179.297 139.987C179.297 139.987 179.297 139.987 179.297 140.219V149.964C179.297 149.964 179.297 149.964 179.297 150.197L213.047 127.458C213.047 127.458 213.047 127.458 213.047 127.226V121.193C213.047 121.193 213.047 121.193 213.047 120.961L179.297 98.2227Z" fill="#2C1F46"/>
<path d="M164.766 92.6543H155.391H155.156L133.828 154.141C133.828 154.141 133.828 154.141 133.828 154.373C133.828 154.373 133.828 154.373 134.063 154.373H143.438H143.672L165 92.8863C165 92.8863 165 92.8863 165 92.6543C165 92.6543 165 92.6543 164.766 92.6543Z" fill="#2C1F46"/>
</svg>
