<svg width="300" height="300" viewBox="0 0 300 300" fill="none" xmlns="http://www.w3.org/2000/svg">
<rect width="300" height="300" fill="white"/>
<path d="M216.328 267.686H83.4375V282H216.328V267.686Z" fill="#2C1F46"/>
<path d="M292.266 18H7.73438C3.51562 18 0 21.52 0 25.744V211.131C0 215.355 3.51562 218.875 7.73438 218.875H292.266C296.484 218.875 300 215.355 300 211.131V25.744C300 21.52 296.484 18 292.266 18ZM150 24.8053C151.641 24.8053 153.047 26.2133 153.047 27.6213C153.047 29.0293 151.641 30.672 150 30.672C148.359 30.672 146.953 29.264 146.953 27.6213C146.953 25.9787 148.359 24.8053 150 24.8053ZM281.25 196.347H18.75V40.7627H281.25V196.347Z" fill="#2C1F46"/>
<path d="M193.125 226.149H106.875V251.493L83.4375 261.349H216.562L193.125 251.493V226.149Z" fill="#2C1F46"/>
</svg>
