<svg width="300" height="300" viewBox="0 0 300 300" fill="none" xmlns="http://www.w3.org/2000/svg">
<path d="M0 0H300V300H0V0Z" fill="white"/>
<path d="M235.722 33.0469H211.706V48.2812C211.706 50.1562 211.706 51.7969 211.235 53.6719H238.312C241.373 53.6719 243.728 56.0156 243.728 59.0625V267.891C243.728 270.938 241.373 273.281 238.312 273.281H57.4868C54.4259 273.281 52.0714 270.938 52.0714 267.891V59.0625C52.0714 56.0156 54.4259 53.6719 57.4868 53.6719H84.5635C84.0926 52.0312 84.0926 50.1562 84.0926 48.2812V33.0469H60.0767C45.2434 33.0469 33 45.2344 33 60.2344V273.047C33 288.047 45.2434 300 60.0767 300H235.722C250.791 300 262.799 287.812 262.799 273.047V60.2344C262.799 45.2344 250.556 33.2812 235.722 33.2812V33.0469Z" fill="#2C1F46"/>
<path d="M109.992 64.4531H186.042C194.989 64.4531 202.288 57.1875 202.288 48.2812V32.1094C202.288 23.2031 194.989 15.9375 186.042 15.9375H165.558C164.852 7.03125 157.317 0 148.135 0C138.952 0 131.653 7.03125 130.712 15.9375H110.227C101.28 15.9375 93.9814 23.2031 93.9814 32.1094V48.2812C93.9814 57.1875 101.28 64.4531 110.227 64.4531H109.992ZM147.899 9.60938C152.373 9.60938 155.905 13.125 155.905 17.5781C155.905 22.0312 152.373 25.5469 147.899 25.5469C143.426 25.5469 139.894 22.0312 139.894 17.5781C139.894 13.125 143.426 9.60938 147.899 9.60938Z" fill="#2C1F46"/>
<path d="M297.174 47.8122C302.119 40.5466 300.235 30.7028 292.936 25.5466C285.637 20.6247 275.513 22.7341 270.569 29.9997L259.267 46.8747L285.873 64.4528L297.174 47.5778V47.8122Z" fill="#2C1F46"/>
<path d="M153.315 196.406C150.961 199.922 151.902 204.609 155.434 206.719L177.331 221.25C180.863 223.594 185.572 222.656 187.691 219.141L226.304 161.719L191.929 138.75L153.315 196.172V196.406Z" fill="#2C1F46"/>
<path d="M146.251 239.062L140.836 247.031L145.545 250.078L150.96 242.109L177.566 227.109L150.018 208.594L146.251 239.062Z" fill="#2C1F46"/>
<path d="M252.204 49.2188L195.931 132.891L230.307 155.859L286.579 72.1875L252.204 49.2188ZM237.841 119.297C235.958 122.344 231.72 123.047 228.894 121.172C225.833 119.297 225.127 115.078 227.011 112.266L254.323 71.4844C256.206 68.4375 260.444 67.7344 263.27 69.6094C266.331 71.4844 267.037 75.7031 265.153 78.5156L237.841 119.297Z" fill="#2C1F46"/>
</svg>
