<svg width="301" height="300" viewBox="0 0 301 300" fill="none" xmlns="http://www.w3.org/2000/svg">
<path d="M0 0H300V300H0V0Z" fill="white"/>
<path d="M297.422 178.594L282.186 169.453C281.249 168.984 280.546 168.047 280.546 166.875V151.875C280.546 150.703 281.249 149.766 282.186 149.297L297.422 140.156C299.766 138.984 300.703 136.172 299.766 133.828L295.312 122.812C294.375 120.469 291.562 119.297 289.218 120L272.108 124.219C271.17 124.453 269.998 124.219 269.061 123.516L258.513 112.969C257.81 112.266 257.341 111.094 257.81 109.922L262.263 92.578C262.966 90.2343 261.794 87.4218 259.451 86.4843L248.434 82.0311C246.09 81.0936 243.278 82.0311 242.106 84.3749L232.965 99.6093C232.496 100.547 231.558 101.25 230.386 101.25H215.385C214.213 101.25 213.276 100.547 212.807 99.6093L203.666 84.3749C202.494 82.0311 199.681 81.0936 197.337 82.0311L186.321 86.4843C183.977 87.4218 182.805 90.2343 183.508 92.578L187.727 109.687C187.962 110.625 187.727 111.797 187.024 112.734L176.476 123.281C175.773 123.984 174.601 124.453 173.429 123.984L156.085 119.531C153.506 118.828 150.928 120 149.99 122.344L145.537 133.359C144.599 135.703 145.537 138.516 147.881 139.687L163.116 148.828C164.054 149.297 164.757 150.234 164.757 151.406V166.406C164.757 167.578 164.054 168.516 163.116 168.984L147.881 178.125C145.537 179.297 144.599 182.109 145.537 184.453L149.99 195.469C150.928 197.812 153.741 198.984 156.085 198.281L173.195 193.828C174.367 193.594 175.305 193.828 176.242 194.531L186.79 205.078C187.493 205.781 187.727 206.953 187.493 208.125L183.039 225.469C182.336 227.812 183.508 230.625 185.852 231.562L196.868 236.016C199.212 236.953 202.025 236.016 203.197 233.672L212.338 218.437C212.807 217.5 213.745 216.797 214.916 216.797H229.917C231.089 216.797 232.027 217.5 232.496 218.437L241.637 233.672C242.809 236.016 245.622 236.953 247.965 236.016L258.982 231.562C261.326 230.625 262.498 227.812 261.794 225.469L257.575 208.359C257.107 207.187 257.575 206.25 258.279 205.312L268.826 194.766C269.529 194.062 270.701 193.594 271.873 194.062L289.218 198.515C291.796 199.219 294.375 198.047 295.312 195.703L299.766 184.687C300.703 182.344 299.766 179.531 297.422 178.359V178.594ZM253.591 172.266C250.075 180.469 243.746 187.031 235.543 190.312C227.339 193.828 218.198 193.828 209.994 190.312C201.791 186.797 195.228 180.469 191.946 172.266C188.43 164.062 188.43 154.922 191.946 146.719C195.462 138.516 201.791 131.953 209.994 128.672C218.198 125.156 227.339 125.156 235.543 128.672C243.746 132.187 250.309 138.516 253.591 146.719C257.107 154.922 257.107 164.062 253.591 172.266Z" fill="#2C1F46"/>
<path d="M215.151 253.359H71.4697V36.7969H215.151V71.9531H230.621V21.5625C230.621 9.60938 221.011 0 209.057 0H77.5639C65.61 0 56 9.60938 56 21.5625V278.438C56 290.391 65.61 300 77.5639 300H209.057C220.776 300 230.621 290.391 230.621 278.438V244.219H215.151V253.359ZM143.193 279.844C139.677 279.844 136.865 277.031 136.865 273.516C136.865 270 139.677 266.953 143.193 266.953C146.709 266.953 149.756 269.766 149.756 273.516C149.756 277.266 146.943 279.844 143.193 279.844Z" fill="#2C1F46"/>
</svg>
